<svg height="28" viewBox="0 0 42 28" width="42" xmlns="http://www.w3.org/2000/svg" xmlns:xlink="http://www.w3.org/1999/xlink"><filter id="a" height="166.7%" width="141.2%" x="-20.6%" y="-23.8%"><feOffset dx="0" dy="2" in="SourceAlpha" result="shadowOffsetOuter1"/><feGaussianBlur in="shadowOffsetOuter1" result="shadowBlurOuter1" stdDeviation="2"/><feColorMatrix in="shadowBlurOuter1" result="shadowMatrixOuter1" type="matrix" values="0 0 0 0 0   0 0 0 0 0   0 0 0 0 0  0 0 0 0.5 0"/><feMerge><feMergeNode in="shadowMatrixOuter1"/><feMergeNode in="SourceGraphic"/></feMerge></filter><mask id="b" fill="#fff"><path d="m33.6129231 20.0957463h-33.6129231v-19.86205222h33.6129231z" fill="none"/></mask><mask id="c" fill="#fff"><path d="m33.6130528 14.0162644v-13.66705219h-33.61298798v13.66705219z" fill="none"/></mask><g fill="#fefefe" fill-rule="evenodd" filter="url(#a)" transform="translate(4 2)"><path d="m.76415696 2.89540809 15.81535234 11.76962481c.134836.0991822.3189389.0991822.4537749 0l15.8153523-11.76962481v16.43637571c0 .0038895.0045378 0-.0116685 0h-32.06114254c-.01620625 0-.0116685.0038895-.0116685 0zm0-1.89807565c0-.0038895-.00453775 0 .0116685 0h32.06114254c.0162063 0 .0116685-.0038895.0116685 0v.95487207l-16.0422398 11.93622509-16.04223974-11.93622509zm.0116685-.76363836c-.41682468 0-.77595511.34227594-.77595511.76363836v18.33445136c0 .4213624.35913043.7642866.77595511.7642866h32.06114254c.4168247 0 .7759551-.3429242.7759551-.7642866v-18.33445136c0-.42136242-.3591304-.76363836-.7759551-.76363836z" mask="url(#b)"/><path d="m.00006482.34921221h33.61305278l-.7642866 1.89807565-15.8153523 11.76897654-16.26912727-11.76897654z" mask="url(#c)"/></g></svg>