<?xml version="1.0" encoding="utf-8"?>
<!-- Generator: Adobe Illustrator 19.1.0, SVG Export Plug-In . SVG Version: 6.00 Build 0)  -->
<svg version="1.1" id="Layer_1" xmlns="http://www.w3.org/2000/svg" xmlns:xlink="http://www.w3.org/1999/xlink" x="0px" y="0px"
	 viewBox="-16 13 31 39" style="enable-background:new -16 13 31 39;" xml:space="preserve">
<style type="text/css">
	.st0{filter:url(#Adobe_OpacityMaskFilter);}
	.st1{fill:#FFFFFF;}
	.st2{mask:url(#mask-2);fill:#F36819;}
</style>
<title>Page 1</title>
<desc>Created with Sketch.</desc>
<g id="Page-1_1_">
	<g id="_xD83C__xDFE0_-test-copy" transform="translate(-762.000000, -685.000000)">
		<g id="Page-1" transform="translate(762.000000, 685.000000)">
			<g id="Clip-2">
			</g>
			<defs>
				<filter id="Adobe_OpacityMaskFilter" filterUnits="userSpaceOnUse" x="-16" y="13" width="31" height="39">
					<feColorMatrix  type="matrix" values="1 0 0 0 0  0 1 0 0 0  0 0 1 0 0  0 0 0 1 0"/>
				</filter>
			</defs>
			<mask maskUnits="userSpaceOnUse" x="-16" y="13" width="31" height="39" id="mask-2">
				<g class="st0">
					<polygon id="path-1" class="st1" points="15,52 15,13 -16,13 -16,52 					"/>
				</g>
			</mask>
			<path id="Fill-1" class="st2" d="M-8.2,41.2c-0.7,0-1.3,0.6-1.3,1.4c0,0.7,0.7,1.3,1.4,1.2h9.4c0.7,0,1.3-0.6,1.3-1.3
				c0-0.7-0.6-1.3-1.3-1.3c0,0,0,0,0,0H-8C-8.1,41.2-8.1,41.2-8.2,41.2L-8.2,41.2z M-8.2,36.8c-0.7,0-1.3,0.6-1.3,1.4
				c0,0.7,0.7,1.3,1.4,1.2H7c0.7,0,1.3-0.6,1.3-1.3c0-0.7-0.6-1.3-1.3-1.3c0,0,0,0,0,0H-8C-8.1,36.8-8.1,36.8-8.2,36.8L-8.2,36.8z
				 M-8.2,32.5c-0.7,0-1.3,0.6-1.3,1.4c0,0.7,0.7,1.3,1.4,1.2H7c0.7,0,1.3-0.6,1.3-1.3c0-0.7-0.6-1.3-1.3-1.3c0,0,0,0,0,0H-8
				C-8.1,32.5-8.1,32.5-8.2,32.5L-8.2,32.5z M-8.2,28.2c-0.7,0-1.3,0.6-1.3,1.4c0,0.7,0.7,1.3,1.4,1.2h9.4c0.7,0,1.3-0.6,1.3-1.3
				c0-0.7-0.6-1.3-1.3-1.3c0,0,0,0,0,0H-8C-8.1,28.2-8.1,28.2-8.2,28.2L-8.2,28.2z M7.5,17l3.4,3.4H7.5V17z M-14.8,13
				c-0.7,0.1-1.2,0.6-1.2,1.3v36.4c0,0.7,0.6,1.3,1.3,1.3H9.2c0.7,0,1.3-0.6,1.3-1.3c0-0.7-0.6-1.3-1.3-1.3c0,0,0,0,0,0h-22.6V15.6
				H4.8v6.1c0,0.7,0.6,1.3,1.3,1.3h6.2v27.7c0,0.7,0.6,1.3,1.3,1.3c0.7,0,1.3-0.6,1.3-1.3v0V21.2c0-0.3-0.1-0.7-0.4-0.9l-7.1-6.9
				C7.3,13.1,6.9,13,6.6,13h-21.3C-14.7,13-14.8,13-14.8,13L-14.8,13z"/>
		</g>
	</g>
</g>
</svg>
